<svg xmlns="http://www.w3.org/2000/svg" xmlns:xlink="http://www.w3.org/1999/xlink" version="1.1" width="256" height="256" viewBox="0 0 256 256" xml:space="preserve">

<defs>
</defs>
<g style="stroke: none; stroke-width: 0; stroke-dasharray: none; stroke-linecap: butt; stroke-linejoin: miter; stroke-miterlimit: 10; fill: none; fill-rule: nonzero; opacity: 1;" transform="translate(1.4065934065934016 1.4065934065934016) scale(2.81 2.81)" >
	<path d="M 34.801 78.271 c 5.587 -7.722 6.832 -17.481 7.039 -27.414 h 17.315 v -11.73 H 41.498 c -0.257 -12.869 2.023 -21.502 6.713 -25.123 c 4.03 -3.113 10.752 -3.061 19.976 0.163 l 3.868 -11.072 C 58.854 -1.519 48.419 -0.971 41.044 4.719 c -7.872 6.077 -11.587 17.374 -11.284 34.408 H 17.136 v 11.73 h 12.963 c -0.342 14.225 -2.923 22.356 -13.2 27.019 V 90 h 56.203 V 78.271 H 34.801 z" style="stroke: none; stroke-width: 1; stroke-dasharray: none; stroke-linecap: butt; stroke-linejoin: miter; stroke-miterlimit: 10; fill: rgb(0,0,0); fill-rule: nonzero; opacity: 1;" transform=" matrix(1 0 0 1 0 0) " stroke-linecap="round" />
</g>
</svg>